<svg xmlns="http://www.w3.org/2000/svg" xmlns:xlink="http://www.w3.org/1999/xlink" width="1000" zoomAndPan="magnify" viewBox="0 0 750 187.499995" height="250" preserveAspectRatio="xMidYMid meet" version="1.0"><defs><g/><clipPath id="b174cdbfb4"><path d="M 27.601562 33.070312 L 120 33.070312 L 120 178.820312 L 27.601562 178.820312 Z M 27.601562 33.070312 " clip-rule="nonzero"/></clipPath><clipPath id="33bc837455"><path d="M 142.558594 55 L 177.527344 55 L 177.527344 110.667969 L 142.558594 110.667969 Z M 142.558594 55 " clip-rule="nonzero"/></clipPath><clipPath id="ab0090ed56"><path d="M 174.171875 56.0625 L 177.527344 56.0625 L 177.527344 109 L 174.171875 109 Z M 174.171875 56.0625 " clip-rule="nonzero"/></clipPath><clipPath id="c86a684d14"><path d="M 160 55 L 177.527344 55 L 177.527344 110.667969 L 160 110.667969 Z M 160 55 " clip-rule="nonzero"/></clipPath></defs><g clip-path="url(#b174cdbfb4)"><path fill="#3176f4" d="M 60.382812 119.574219 L 33.539062 146.417969 C 26.125 153.832031 26.125 165.851562 33.539062 173.265625 C 40.949219 180.675781 52.964844 180.675781 60.382812 173.265625 L 114.070312 119.574219 C 121.488281 112.160156 121.488281 100.140625 114.070312 92.726562 L 60.382812 39.039062 C 52.964844 31.621094 40.949219 31.621094 33.539062 39.039062 C 26.125 46.453125 26.125 58.46875 33.539062 65.886719 L 60.382812 92.726562 C 67.796875 100.140625 67.796875 112.160156 60.382812 119.574219 " fill-opacity="1" fill-rule="nonzero"/></g><path fill="#3176f4" d="M 32.738281 111.25 L 22.527344 121.457031 C 19.714844 124.273438 19.714844 128.84375 22.527344 131.660156 C 25.34375 134.476562 29.917969 134.476562 32.738281 131.660156 L 53.140625 111.25 C 55.957031 108.433594 55.957031 103.863281 53.140625 101.046875 L 32.738281 80.636719 C 29.917969 77.820312 25.34375 77.820312 22.527344 80.636719 C 19.714844 83.453125 19.714844 88.023438 22.527344 90.839844 L 32.738281 101.046875 C 35.550781 103.863281 35.550781 108.433594 32.738281 111.25 " fill-opacity="1" fill-rule="nonzero"/><path fill="#1848a0" d="M 27.632812 133.769531 C 27.140625 133.769531 26.640625 133.71875 26.152344 133.617188 C 27.484375 133.339844 28.746094 132.691406 29.777344 131.660156 L 50.1875 111.25 C 53 108.433594 53 103.863281 50.1875 101.046875 L 29.777344 80.636719 C 28.746094 79.609375 27.484375 78.957031 26.152344 78.683594 C 26.640625 78.582031 27.140625 78.53125 27.632812 78.53125 C 29.480469 78.53125 31.328125 79.234375 32.738281 80.636719 L 53.140625 101.046875 C 54.550781 102.453125 55.257812 104.300781 55.257812 106.148438 C 55.257812 107.996094 54.550781 109.839844 53.140625 111.25 L 32.738281 131.660156 C 31.328125 133.070312 29.480469 133.769531 27.632812 133.769531 " fill-opacity="1" fill-rule="nonzero"/><path fill="#1848a0" d="M 104.878906 128.769531 L 78.128906 102.023438 C 70.722656 94.609375 70.722656 82.589844 78.128906 75.175781 L 87.324219 65.980469 L 114.070312 92.726562 C 117.78125 96.433594 119.632812 101.292969 119.632812 106.148438 C 119.632812 111.007812 117.78125 115.863281 114.070312 119.574219 L 104.878906 128.769531 " fill-opacity="1" fill-rule="nonzero"/><path fill="#ff6e29" d="M 137.667969 69.324219 L 164.515625 42.476562 C 171.933594 35.070312 171.933594 23.046875 164.515625 15.636719 C 157.101562 8.222656 145.085938 8.222656 137.667969 15.636719 L 83.980469 69.324219 C 76.570312 76.734375 76.570312 88.757812 83.980469 96.167969 L 137.667969 149.859375 C 145.085938 157.273438 157.101562 157.273438 164.515625 149.859375 C 171.933594 142.449219 171.933594 130.425781 164.515625 123.015625 L 137.667969 96.167969 C 130.257812 88.757812 130.257812 76.734375 137.667969 69.324219 " fill-opacity="1" fill-rule="nonzero"/><g clip-path="url(#33bc837455)"><path fill="#ff6e29" d="M 165.320312 77.644531 L 175.523438 67.441406 C 178.34375 64.621094 178.34375 60.054688 175.523438 57.234375 C 172.707031 54.417969 168.136719 54.417969 165.320312 57.234375 L 144.910156 77.644531 C 142.09375 80.460938 142.09375 85.03125 144.910156 87.847656 L 165.320312 108.257812 C 168.136719 111.078125 172.707031 111.078125 175.523438 108.257812 C 178.34375 105.441406 178.34375 100.871094 175.523438 98.054688 L 165.320312 87.847656 C 162.5 85.03125 162.5 80.460938 165.320312 77.644531 " fill-opacity="1" fill-rule="nonzero"/></g><g clip-path="url(#ab0090ed56)"><path fill="#d3d2d2" d="M 174.683594 108.984375 C 174.972656 108.765625 175.261719 108.523438 175.523438 108.257812 C 176.933594 106.851562 177.632812 105.003906 177.632812 103.15625 C 177.632812 105.003906 176.933594 106.851562 175.523438 108.257812 C 175.261719 108.523438 174.972656 108.765625 174.683594 108.984375 M 175.523438 57.234375 C 175.277344 56.988281 175.011719 56.757812 174.738281 56.550781 C 175.011719 56.757812 175.277344 56.988281 175.523438 57.234375 " fill-opacity="1" fill-rule="nonzero"/></g><g clip-path="url(#c86a684d14)"><path fill="#e8713c" d="M 170.425781 110.371094 C 169.929688 110.371094 169.433594 110.320312 168.945312 110.210938 C 170.269531 109.9375 171.53125 109.285156 172.566406 108.257812 C 175.382812 105.441406 175.382812 100.871094 172.566406 98.054688 L 162.359375 87.847656 C 159.542969 85.03125 159.542969 80.460938 162.359375 77.644531 L 172.566406 67.441406 C 175.382812 64.621094 175.382812 60.054688 172.566406 57.234375 C 171.53125 56.203125 170.269531 55.558594 168.945312 55.277344 C 169.433594 55.175781 169.929688 55.125 170.425781 55.125 C 171.941406 55.125 173.464844 55.601562 174.738281 56.550781 C 175.011719 56.757812 175.277344 56.988281 175.523438 57.234375 C 176.933594 58.644531 177.632812 60.492188 177.632812 62.335938 C 177.632812 64.183594 176.933594 66.03125 175.523438 67.441406 L 165.320312 77.644531 C 163.910156 79.054688 163.203125 80.898438 163.203125 82.746094 C 163.203125 84.59375 163.910156 86.441406 165.320312 87.847656 L 175.523438 98.054688 C 176.933594 99.464844 177.632812 101.308594 177.632812 103.15625 C 177.632812 105.003906 176.933594 106.851562 175.523438 108.257812 C 175.261719 108.523438 174.972656 108.765625 174.683594 108.984375 C 173.417969 109.910156 171.921875 110.371094 170.425781 110.371094 " fill-opacity="1" fill-rule="nonzero"/></g><g fill="#7f95e4" fill-opacity="1"><g transform="translate(204.791926, 136.403246)"><g><path d="M 30.421875 -18.484375 L 65.5625 -18.484375 L 65.5625 0 L 10.484375 0 L 10.484375 -91.78125 L 30.421875 -91.78125 Z M 30.421875 -18.484375 "/></g></g></g><g fill="#7f95e4" fill-opacity="1"><g transform="translate(265.753031, 136.403246)"><g><path d="M 42.875 1.96875 C 35.53125 1.96875 28.972656 0.332031 23.203125 -2.9375 C 17.429688 -6.21875 12.882812 -10.675781 9.5625 -16.3125 C 6.25 -21.957031 4.59375 -28.320312 4.59375 -35.40625 C 4.59375 -42.570312 6.25 -48.972656 9.5625 -54.609375 C 12.882812 -60.242188 17.429688 -64.675781 23.203125 -67.90625 C 28.972656 -71.144531 35.53125 -72.765625 42.875 -72.765625 C 50.125 -72.765625 56.632812 -71.144531 62.40625 -67.90625 C 68.175781 -64.675781 72.722656 -60.242188 76.046875 -54.609375 C 79.367188 -48.972656 81.03125 -42.570312 81.03125 -35.40625 C 81.03125 -28.320312 79.367188 -21.957031 76.046875 -16.3125 C 72.722656 -10.675781 68.175781 -6.21875 62.40625 -2.9375 C 56.632812 0.332031 50.125 1.96875 42.875 1.96875 Z M 42.875 -16 C 48.375 -16 52.875 -17.789062 56.375 -21.375 C 59.875 -24.957031 61.625 -29.632812 61.625 -35.40625 C 61.625 -41.164062 59.875 -45.835938 56.375 -49.421875 C 52.875 -53.003906 48.375 -54.796875 42.875 -54.796875 C 37.28125 -54.796875 32.734375 -53.003906 29.234375 -49.421875 C 25.742188 -45.835938 24 -41.164062 24 -35.40625 C 24 -29.632812 25.742188 -24.957031 29.234375 -21.375 C 32.734375 -17.789062 37.28125 -16 42.875 -16 Z M 42.875 -16 "/></g></g></g><g fill="#7f95e4" fill-opacity="1"><g transform="translate(343.888183, 136.403246)"><g><path d="M 66.34375 -70.796875 L 78.796875 -70.796875 L 78.796875 -8.265625 C 78.796875 -0.828125 77.332031 5.550781 74.40625 10.875 C 71.476562 16.207031 67.300781 20.316406 61.875 23.203125 C 56.457031 26.085938 50.035156 27.53125 42.609375 27.53125 C 32.992188 27.53125 24.972656 25.210938 18.546875 20.578125 C 12.128906 15.953125 8.132812 9.617188 6.5625 1.578125 L 25.5625 1.578125 C 26.613281 4.722656 28.773438 7.101562 32.046875 8.71875 C 35.328125 10.332031 38.71875 11.140625 42.21875 11.140625 C 47.113281 11.140625 51.285156 9.675781 54.734375 6.75 C 58.191406 3.820312 59.921875 -0.257812 59.921875 -5.5 L 59.921875 -8.125 C 57.117188 -6.113281 54.015625 -4.5625 50.609375 -3.46875 C 47.203125 -2.375 43.570312 -1.828125 39.71875 -1.828125 C 33.164062 -1.828125 27.222656 -3.398438 21.890625 -6.546875 C 16.554688 -9.703125 12.335938 -13.941406 9.234375 -19.265625 C 6.140625 -24.597656 4.59375 -30.585938 4.59375 -37.234375 C 4.59375 -43.878906 6.140625 -49.890625 9.234375 -55.265625 C 12.335938 -60.640625 16.554688 -64.898438 21.890625 -68.046875 C 27.222656 -71.191406 33.164062 -72.765625 39.71875 -72.765625 C 44.351562 -72.765625 48.679688 -71.976562 52.703125 -70.40625 C 56.722656 -68.832031 60.265625 -66.601562 63.328125 -63.71875 Z M 41.953125 -18.875 C 47.203125 -18.875 51.53125 -20.597656 54.9375 -24.046875 C 58.34375 -27.503906 60.046875 -31.898438 60.046875 -37.234375 C 60.046875 -42.484375 58.363281 -46.832031 55 -50.28125 C 51.632812 -53.726562 47.285156 -55.453125 41.953125 -55.453125 C 36.796875 -55.453125 32.515625 -53.726562 29.109375 -50.28125 C 25.703125 -46.832031 24 -42.484375 24 -37.234375 C 24 -31.898438 25.679688 -27.503906 29.046875 -24.046875 C 32.410156 -20.597656 36.710938 -18.875 41.953125 -18.875 Z M 41.953125 -18.875 "/></g></g></g><g fill="#7f95e4" fill-opacity="1"><g transform="translate(424.383107, 136.403246)"><g><path d="M 9.171875 -80.234375 L 9.171875 -98.0625 L 28.3125 -98.0625 L 28.3125 -80.234375 Z M 9.171875 0 L 9.171875 -70.796875 L 28.3125 -70.796875 L 28.3125 0 Z M 9.171875 0 "/></g></g></g><g fill="#7f95e4" fill-opacity="1"><g transform="translate(454.404717, 136.403246)"><g><path d="M 34.34375 1.96875 C 28.40625 1.96875 23.207031 0.921875 18.75 -1.171875 C 14.289062 -3.273438 10.816406 -6.226562 8.328125 -10.03125 C 5.835938 -13.832031 4.59375 -18.269531 4.59375 -23.34375 L 23.203125 -23.34375 C 23.296875 -20.195312 24.429688 -17.832031 26.609375 -16.25 C 28.796875 -14.675781 31.59375 -13.890625 35 -13.890625 C 37.71875 -13.890625 40.082031 -14.476562 42.09375 -15.65625 C 44.101562 -16.84375 45.109375 -18.617188 45.109375 -20.984375 C 45.109375 -23.429688 43.773438 -25.15625 41.109375 -26.15625 C 38.441406 -27.164062 35.226562 -27.972656 31.46875 -28.578125 C 28.664062 -29.015625 25.753906 -29.625 22.734375 -30.40625 C 19.722656 -31.195312 16.953125 -32.335938 14.421875 -33.828125 C 11.890625 -35.316406 9.8125 -37.367188 8.1875 -39.984375 C 6.570312 -42.609375 5.765625 -46.019531 5.765625 -50.21875 C 5.765625 -54.675781 6.96875 -58.609375 9.375 -62.015625 C 11.78125 -65.421875 15.101562 -68.0625 19.34375 -69.9375 C 23.582031 -71.820312 28.582031 -72.765625 34.34375 -72.765625 C 40.03125 -72.765625 44.992188 -71.78125 49.234375 -69.8125 C 53.472656 -67.84375 56.769531 -65.085938 59.125 -61.546875 C 61.488281 -58.015625 62.671875 -53.890625 62.671875 -49.171875 L 44.453125 -49.171875 C 44.453125 -51.960938 43.507812 -54.054688 41.625 -55.453125 C 39.75 -56.859375 37.148438 -57.5625 33.828125 -57.5625 C 30.859375 -57.5625 28.539062 -56.925781 26.875 -55.65625 C 25.21875 -54.382812 24.390625 -52.742188 24.390625 -50.734375 C 24.390625 -48.378906 25.695312 -46.765625 28.3125 -45.890625 C 30.9375 -45.015625 34.085938 -44.269531 37.765625 -43.65625 C 40.648438 -43.132812 43.617188 -42.5 46.671875 -41.75 C 49.734375 -41.007812 52.570312 -39.894531 55.1875 -38.40625 C 57.8125 -36.925781 59.929688 -34.875 61.546875 -32.25 C 63.171875 -29.625 63.984375 -26.171875 63.984375 -21.890625 C 63.984375 -17.085938 62.757812 -12.894531 60.3125 -9.3125 C 57.863281 -5.726562 54.410156 -2.953125 49.953125 -0.984375 C 45.492188 0.984375 40.289062 1.96875 34.34375 1.96875 Z M 34.34375 1.96875 "/></g></g></g><g fill="#7f95e4" fill-opacity="1"><g transform="translate(515.759137, 136.403246)"><g><path d="M 43.796875 -17.046875 L 52.4375 -17.046875 L 52.4375 0 L 38.9375 0 C 31.15625 0 25.015625 -2.25 20.515625 -6.75 C 16.015625 -11.25 13.765625 -17.429688 13.765625 -25.296875 L 13.765625 -55.453125 L 0.921875 -55.453125 L 0.921875 -59.53125 L 28.96875 -89.28125 L 32.515625 -89.28125 L 32.515625 -70.796875 L 52.046875 -70.796875 L 52.046875 -55.453125 L 32.90625 -55.453125 L 32.90625 -27.796875 C 32.90625 -24.390625 33.84375 -21.742188 35.71875 -19.859375 C 37.601562 -17.984375 40.296875 -17.046875 43.796875 -17.046875 Z M 43.796875 -17.046875 "/></g></g></g><g fill="#7f95e4" fill-opacity="1"><g transform="translate(564.659068, 136.403246)"><g><path d="M 9.171875 -80.234375 L 9.171875 -98.0625 L 28.3125 -98.0625 L 28.3125 -80.234375 Z M 9.171875 0 L 9.171875 -70.796875 L 28.3125 -70.796875 L 28.3125 0 Z M 9.171875 0 "/></g></g></g><g fill="#7f95e4" fill-opacity="1"><g transform="translate(594.680677, 136.403246)"><g><path d="M 67.65625 -70.796875 L 80.234375 -70.796875 L 80.234375 25.5625 L 61.09375 25.5625 L 61.09375 -3.796875 C 58.382812 -1.960938 55.367188 -0.523438 52.046875 0.515625 C 48.722656 1.566406 45.269531 2.09375 41.6875 2.09375 C 34.519531 2.09375 28.140625 0.476562 22.546875 -2.75 C 16.953125 -5.988281 12.5625 -10.445312 9.375 -16.125 C 6.1875 -21.8125 4.59375 -28.238281 4.59375 -35.40625 C 4.59375 -42.570312 6.1875 -48.972656 9.375 -54.609375 C 12.5625 -60.242188 16.953125 -64.675781 22.546875 -67.90625 C 28.140625 -71.144531 34.519531 -72.765625 41.6875 -72.765625 C 46.0625 -72.765625 50.171875 -72.019531 54.015625 -70.53125 C 57.859375 -69.050781 61.3125 -67 64.375 -64.375 Z M 43.140625 -16 C 46.890625 -16 50.207031 -16.847656 53.09375 -18.546875 C 55.976562 -20.253906 58.273438 -22.570312 59.984375 -25.5 C 61.691406 -28.425781 62.546875 -31.726562 62.546875 -35.40625 C 62.546875 -39.070312 61.691406 -42.367188 59.984375 -45.296875 C 58.273438 -48.222656 55.976562 -50.535156 53.09375 -52.234375 C 50.207031 -53.941406 46.890625 -54.796875 43.140625 -54.796875 C 39.460938 -54.796875 36.179688 -53.941406 33.296875 -52.234375 C 30.410156 -50.535156 28.113281 -48.222656 26.40625 -45.296875 C 24.707031 -42.367188 23.859375 -39.070312 23.859375 -35.40625 C 23.859375 -31.726562 24.707031 -28.425781 26.40625 -25.5 C 28.113281 -22.570312 30.410156 -20.253906 33.296875 -18.546875 C 36.179688 -16.847656 39.460938 -16 43.140625 -16 Z M 43.140625 -16 "/></g></g></g><g fill="#373636" fill-opacity="1"><g transform="translate(676.619623, 136.403246)"><g/></g></g><g fill="#fa7315" fill-opacity="1"><g transform="translate(700.485666, 136.403246)"><g><path d="M 7.859375 0 L 7.859375 -20.453125 L 28.1875 -20.453125 L 28.1875 0 Z M 7.859375 0 "/></g></g></g></svg>