<svg xmlns="http://www.w3.org/2000/svg" xmlns:xlink="http://www.w3.org/1999/xlink" width="500" zoomAndPan="magnify" viewBox="0 0 375 374.999991" height="500" preserveAspectRatio="xMidYMid meet" version="1.0"><defs><clipPath id="a136c192a9"><path d="M 45 66.015625 L 230 66.015625 L 230 359.042969 L 45 359.042969 Z M 45 66.015625 " clip-rule="nonzero"/></clipPath><clipPath id="d893a976ce"><path d="M 276 110 L 346 110 L 346 222 L 276 222 Z M 276 110 " clip-rule="nonzero"/></clipPath><clipPath id="8b3adb417d"><path d="M 340 113 L 346 113 L 346 219 L 340 219 Z M 340 113 " clip-rule="nonzero"/></clipPath><clipPath id="f956fdfdbb"><path d="M 311 110 L 346 110 L 346 222 L 311 222 Z M 311 110 " clip-rule="nonzero"/></clipPath></defs><g clip-path="url(#a136c192a9)"><path fill="#3176f4" d="M 110.546875 239.929688 L 56.582031 293.894531 C 41.671875 308.800781 41.671875 332.964844 56.582031 347.871094 C 71.476562 362.765625 95.636719 362.765625 110.546875 347.871094 L 218.484375 239.929688 C 233.394531 225.023438 233.394531 200.863281 218.484375 185.953125 L 110.546875 78.011719 C 95.636719 63.105469 71.476562 63.105469 56.582031 78.011719 C 41.671875 92.921875 41.671875 117.082031 56.582031 131.988281 L 110.546875 185.953125 C 125.453125 200.863281 125.453125 225.023438 110.546875 239.929688 " fill-opacity="1" fill-rule="nonzero"/></g><path fill="#3176f4" d="M 54.96875 223.195312 L 34.4375 243.710938 C 28.785156 249.375 28.785156 258.5625 34.4375 264.226562 C 40.105469 269.890625 49.300781 269.890625 54.96875 264.226562 L 95.988281 223.195312 C 101.652344 217.527344 101.652344 208.34375 95.988281 202.679688 L 54.96875 161.644531 C 49.300781 155.980469 40.105469 155.980469 34.4375 161.644531 C 28.785156 167.3125 28.785156 176.496094 34.4375 182.164062 L 54.96875 202.679688 C 60.621094 208.34375 60.621094 217.527344 54.96875 223.195312 " fill-opacity="1" fill-rule="nonzero"/><path fill="#1848a0" d="M 44.707031 268.46875 C 43.714844 268.46875 42.710938 268.367188 41.730469 268.164062 C 44.402344 267.601562 46.941406 266.304688 49.019531 264.226562 L 90.050781 223.195312 C 95.707031 217.527344 95.707031 208.34375 90.050781 202.679688 L 49.019531 161.644531 C 46.941406 159.582031 44.402344 158.273438 41.730469 157.71875 C 42.710938 157.515625 43.714844 157.414062 44.707031 157.414062 C 48.421875 157.414062 52.132812 158.824219 54.96875 161.644531 L 95.988281 202.679688 C 98.820312 205.511719 100.242188 209.222656 100.242188 212.9375 C 100.242188 216.648438 98.820312 220.363281 95.988281 223.195312 L 54.96875 264.226562 C 52.132812 267.058594 48.421875 268.46875 44.707031 268.46875 " fill-opacity="1" fill-rule="nonzero"/><path fill="#1848a0" d="M 200 258.414062 L 146.226562 204.640625 C 131.332031 189.734375 131.332031 165.574219 146.226562 150.664062 L 164.714844 132.179688 L 218.484375 185.953125 C 225.945312 193.402344 229.667969 203.175781 229.667969 212.9375 C 229.667969 222.710938 225.945312 232.46875 218.484375 239.929688 L 200 258.414062 " fill-opacity="1" fill-rule="nonzero"/><path fill="#ff6e29" d="M 265.929688 138.90625 L 319.902344 84.929688 C 334.8125 70.035156 334.8125 45.863281 319.902344 30.964844 C 304.996094 16.058594 280.835938 16.058594 265.929688 30.964844 L 157.988281 138.90625 C 143.089844 153.804688 143.089844 177.976562 157.988281 192.871094 L 265.929688 300.8125 C 280.835938 315.71875 304.996094 315.71875 319.902344 300.8125 C 334.8125 285.917969 334.8125 261.742188 319.902344 246.847656 L 265.929688 192.871094 C 251.03125 177.976562 251.03125 153.804688 265.929688 138.90625 " fill-opacity="1" fill-rule="nonzero"/><g clip-path="url(#d893a976ce)"><path fill="#ff6e29" d="M 321.519531 155.632812 L 342.035156 135.113281 C 347.699219 129.449219 347.699219 120.265625 342.035156 114.597656 C 336.367188 108.933594 327.183594 108.933594 321.519531 114.597656 L 280.484375 155.632812 C 274.820312 161.296875 274.820312 170.480469 280.484375 176.148438 L 321.519531 217.179688 C 327.183594 222.84375 336.367188 222.84375 342.035156 217.179688 C 347.699219 211.515625 347.699219 202.328125 342.035156 196.664062 L 321.519531 176.148438 C 315.851562 170.480469 315.851562 161.296875 321.519531 155.632812 " fill-opacity="1" fill-rule="nonzero"/></g><g clip-path="url(#8b3adb417d)"><path fill="#d3d2d2" d="M 340.339844 218.636719 C 340.929688 218.195312 341.503906 217.710938 342.035156 217.179688 C 344.867188 214.347656 346.277344 210.632812 346.277344 206.921875 C 346.277344 210.632812 344.867188 214.347656 342.035156 217.179688 C 341.503906 217.710938 340.929688 218.195312 340.339844 218.636719 M 342.035156 114.597656 C 341.539062 114.101562 341.007812 113.640625 340.453125 113.222656 C 341.007812 113.640625 341.539062 114.101562 342.035156 114.597656 " fill-opacity="1" fill-rule="nonzero"/></g><g clip-path="url(#f956fdfdbb)"><path fill="#e8713c" d="M 331.789062 221.421875 C 330.78125 221.421875 329.789062 221.320312 328.808594 221.105469 C 331.472656 220.554688 334.011719 219.246094 336.085938 217.179688 C 341.75 211.515625 341.75 202.328125 336.085938 196.664062 L 315.570312 176.148438 C 309.90625 170.480469 309.90625 161.296875 315.570312 155.632812 L 336.085938 135.113281 C 341.75 129.449219 341.75 120.265625 336.085938 114.597656 C 334.011719 112.523438 331.472656 111.226562 328.808594 110.660156 C 329.789062 110.457031 330.78125 110.355469 331.789062 110.355469 C 334.835938 110.355469 337.890625 111.316406 340.453125 113.222656 C 341.007812 113.640625 341.539062 114.101562 342.035156 114.597656 C 344.867188 117.429688 346.277344 121.144531 346.277344 124.855469 C 346.277344 128.570312 344.867188 132.28125 342.035156 135.113281 L 321.519531 155.632812 C 318.683594 158.464844 317.261719 162.175781 317.261719 165.890625 C 317.261719 169.601562 318.683594 173.316406 321.519531 176.148438 L 342.035156 196.664062 C 344.867188 199.496094 346.277344 203.207031 346.277344 206.921875 C 346.277344 210.632812 344.867188 214.347656 342.035156 217.179688 C 341.503906 217.710938 340.929688 218.195312 340.339844 218.636719 C 337.800781 220.496094 334.789062 221.421875 331.789062 221.421875 " fill-opacity="1" fill-rule="nonzero"/></g></svg>