<svg xmlns="http://www.w3.org/2000/svg" width="500" height="500" viewBox="80 30 220 240" preserveAspectRatio="xMidYMid meet" version="1.0"><defs><clipPath id="c1"><path d="M 96.445312 70 L 215 70 L 215 256.367188 L 96.445312 256.367188 Z M 96.445312 70 " clip-rule="nonzero"/></clipPath><clipPath id="c2"><path d="M 244 97.222656 L 288.695312 97.222656 L 288.695312 169 L 244 169 Z M 244 97.222656 " clip-rule="nonzero"/></clipPath><clipPath id="c3"><path d="M 284.257812 99.0625 L 288.695312 99.0625 L 288.695312 167 L 284.257812 167 Z M 284.257812 99.0625 " clip-rule="nonzero"/></clipPath><clipPath id="c4"><path d="M 266 97.222656 L 288.695312 97.222656 L 288.695312 169 L 266 169 Z M 266 97.222656 " clip-rule="nonzero"/></clipPath></defs><g clip-path="url(#c1)"><path fill="#3176f4" d="M 138.449219 180.449219 L 104.054688 214.84375 C 94.554688 224.34375 94.554688 239.742188 104.054688 249.246094 C 113.550781 258.738281 128.949219 258.738281 138.449219 249.246094 L 207.246094 180.449219 C 216.75 170.945312 216.75 155.546875 207.246094 146.046875 L 138.449219 77.25 C 128.949219 67.746094 113.550781 67.746094 104.054688 77.25 C 94.554688 86.75 94.554688 102.148438 104.054688 111.648438 L 138.449219 146.046875 C 147.953125 155.546875 147.953125 170.945312 138.449219 180.449219 " fill-opacity="1" fill-rule="nonzero"/></g><path fill="#3176f4" d="M 103.027344 169.78125 L 89.945312 182.855469 C 86.339844 186.46875 86.339844 192.324219 89.945312 195.933594 C 93.554688 199.542969 99.417969 199.542969 103.027344 195.933594 L 129.171875 169.78125 C 132.78125 166.171875 132.78125 160.316406 129.171875 156.703125 L 103.027344 130.550781 C 99.417969 126.941406 93.554688 126.941406 89.945312 130.550781 C 86.339844 134.164062 86.339844 140.019531 89.945312 143.628906 L 103.027344 156.703125 C 106.628906 160.316406 106.628906 166.171875 103.027344 169.78125 " fill-opacity="1" fill-rule="nonzero"/><path fill="#1848a0" d="M 96.488281 198.636719 C 95.855469 198.636719 95.214844 198.574219 94.589844 198.445312 C 96.292969 198.082031 97.914062 197.257812 99.238281 195.933594 L 125.386719 169.78125 C 128.992188 166.171875 128.992188 160.316406 125.386719 156.703125 L 99.238281 130.550781 C 97.914062 129.234375 96.292969 128.402344 94.589844 128.050781 C 95.214844 127.921875 95.855469 127.855469 96.488281 127.855469 C 98.855469 127.855469 101.222656 128.753906 103.027344 130.550781 L 129.171875 156.703125 C 130.976562 158.511719 131.882812 160.875 131.882812 163.242188 C 131.882812 165.609375 130.976562 167.976562 129.171875 169.78125 L 103.027344 195.933594 C 101.222656 197.738281 98.855469 198.636719 96.488281 198.636719 " fill-opacity="1" fill-rule="nonzero"/><path fill="#1848a0" d="M 195.464844 192.230469 L 161.195312 157.957031 C 151.699219 148.453125 151.699219 133.054688 161.195312 123.554688 L 172.976562 111.773438 L 207.246094 146.046875 C 212 150.792969 214.375 157.019531 214.375 163.242188 C 214.375 169.472656 212 175.691406 207.246094 180.449219 L 195.464844 192.230469 " fill-opacity="1" fill-rule="nonzero"/><path fill="#ff6e29" d="M 237.484375 116.058594 L 271.886719 81.65625 C 281.390625 72.164062 281.390625 56.757812 271.886719 47.261719 C 262.386719 37.761719 246.988281 37.761719 237.484375 47.261719 L 168.6875 116.058594 C 159.195312 125.554688 159.195312 140.960938 168.6875 150.453125 L 237.484375 219.25 C 246.988281 228.753906 262.386719 228.753906 271.886719 219.25 C 281.390625 209.757812 281.390625 194.351562 271.886719 184.855469 L 237.484375 150.453125 C 227.992188 140.960938 227.992188 125.554688 237.484375 116.058594 " fill-opacity="1" fill-rule="nonzero"/><g clip-path="url(#c2)"><path fill="#ff6e29" d="M 272.914062 126.71875 L 285.992188 113.644531 C 289.601562 110.03125 289.601562 104.175781 285.992188 100.566406 C 282.382812 96.957031 276.527344 96.957031 272.914062 100.566406 L 246.765625 126.71875 C 243.152344 130.328125 243.152344 136.183594 246.765625 139.796875 L 272.914062 165.945312 C 276.527344 169.558594 282.382812 169.558594 285.992188 165.945312 C 289.601562 162.335938 289.601562 156.480469 285.992188 152.871094 L 272.914062 139.796875 C 269.304688 136.183594 269.304688 130.328125 272.914062 126.71875 " fill-opacity="1" fill-rule="nonzero"/></g><g clip-path="url(#c3)"><path fill="#d3d2d2" d="M 284.914062 166.875 C 285.289062 166.59375 285.652344 166.285156 285.992188 165.945312 C 287.796875 164.140625 288.695312 161.777344 288.695312 159.410156 C 288.695312 161.777344 287.796875 164.140625 285.992188 165.945312 C 285.652344 166.285156 285.289062 166.59375 284.914062 166.875 M 285.992188 100.566406 C 285.675781 100.25 285.335938 99.957031 284.984375 99.6875 C 285.335938 99.957031 285.675781 100.25 285.992188 100.566406 " fill-opacity="1" fill-rule="nonzero"/></g><g clip-path="url(#c4)"><path fill="#e8713c" d="M 279.460938 168.652344 C 278.820312 168.652344 278.1875 168.585938 277.5625 168.449219 C 279.261719 168.097656 280.878906 167.261719 282.203125 165.945312 C 285.8125 162.335938 285.8125 156.480469 282.203125 152.871094 L 269.125 139.796875 C 265.515625 136.183594 265.515625 130.328125 269.125 126.71875 L 282.203125 113.644531 C 285.8125 110.03125 285.8125 104.175781 282.203125 100.566406 C 280.878906 99.242188 279.261719 98.414062 277.5625 98.054688 C 278.1875 97.925781 278.820312 97.863281 279.460938 97.863281 C 281.402344 97.863281 283.351562 98.472656 284.984375 99.6875 C 285.335938 99.957031 285.675781 100.25 285.992188 100.566406 C 287.796875 102.371094 288.695312 104.738281 288.695312 107.105469 C 288.695312 109.472656 287.796875 111.835938 285.992188 113.644531 L 272.914062 126.71875 C 271.109375 128.523438 270.203125 130.890625 270.203125 133.257812 C 270.203125 135.625 271.109375 137.988281 272.914062 139.796875 L 285.992188 152.871094 C 287.796875 154.675781 288.695312 157.042969 288.695312 159.410156 C 288.695312 161.777344 287.796875 164.140625 285.992188 165.945312 C 285.652344 166.285156 285.289062 166.59375 284.914062 166.875 C 283.292969 168.0625 281.375 168.652344 279.460938 168.652344 " fill-opacity="1" fill-rule="nonzero"/></g></svg>
