<svg xmlns="http://www.w3.org/2000/svg" xmlns:xlink="http://www.w3.org/1999/xlink" width="500" zoomAndPan="magnify" viewBox="0 0 375 374.999991" height="500" preserveAspectRatio="xMidYMid meet" version="1.0"><defs><g/><clipPath id="085ca5a4c4"><path d="M 96.445312 70 L 215 70 L 215 256.367188 L 96.445312 256.367188 Z M 96.445312 70 " clip-rule="nonzero"/></clipPath><clipPath id="4142562aab"><path d="M 244 97.222656 L 288.695312 97.222656 L 288.695312 169 L 244 169 Z M 244 97.222656 " clip-rule="nonzero"/></clipPath><clipPath id="2eae8d839b"><path d="M 284.257812 99.0625 L 288.695312 99.0625 L 288.695312 167 L 284.257812 167 Z M 284.257812 99.0625 " clip-rule="nonzero"/></clipPath><clipPath id="71edbdf02c"><path d="M 266 97.222656 L 288.695312 97.222656 L 288.695312 169 L 266 169 Z M 266 97.222656 " clip-rule="nonzero"/></clipPath><clipPath id="0fd8638f76"><path d="M 83 16 L 126 16 L 126 73.921875 L 83 73.921875 Z M 83 16 " clip-rule="nonzero"/></clipPath><clipPath id="e370d2f757"><rect x="0" width="302" y="0" height="74"/></clipPath></defs><g clip-path="url(#085ca5a4c4)"><path fill="#3176f4" d="M 138.449219 180.449219 L 104.054688 214.84375 C 94.554688 224.34375 94.554688 239.742188 104.054688 249.246094 C 113.550781 258.738281 128.949219 258.738281 138.449219 249.246094 L 207.246094 180.449219 C 216.75 170.945312 216.75 155.546875 207.246094 146.046875 L 138.449219 77.25 C 128.949219 67.746094 113.550781 67.746094 104.054688 77.25 C 94.554688 86.75 94.554688 102.148438 104.054688 111.648438 L 138.449219 146.046875 C 147.953125 155.546875 147.953125 170.945312 138.449219 180.449219 " fill-opacity="1" fill-rule="nonzero"/></g><path fill="#3176f4" d="M 103.027344 169.78125 L 89.945312 182.855469 C 86.339844 186.46875 86.339844 192.324219 89.945312 195.933594 C 93.554688 199.542969 99.417969 199.542969 103.027344 195.933594 L 129.171875 169.78125 C 132.78125 166.171875 132.78125 160.316406 129.171875 156.703125 L 103.027344 130.550781 C 99.417969 126.941406 93.554688 126.941406 89.945312 130.550781 C 86.339844 134.164062 86.339844 140.019531 89.945312 143.628906 L 103.027344 156.703125 C 106.628906 160.316406 106.628906 166.171875 103.027344 169.78125 " fill-opacity="1" fill-rule="nonzero"/><path fill="#1848a0" d="M 96.488281 198.636719 C 95.855469 198.636719 95.214844 198.574219 94.589844 198.445312 C 96.292969 198.082031 97.914062 197.257812 99.238281 195.933594 L 125.386719 169.78125 C 128.992188 166.171875 128.992188 160.316406 125.386719 156.703125 L 99.238281 130.550781 C 97.914062 129.234375 96.292969 128.402344 94.589844 128.050781 C 95.214844 127.921875 95.855469 127.855469 96.488281 127.855469 C 98.855469 127.855469 101.222656 128.753906 103.027344 130.550781 L 129.171875 156.703125 C 130.976562 158.511719 131.882812 160.875 131.882812 163.242188 C 131.882812 165.609375 130.976562 167.976562 129.171875 169.78125 L 103.027344 195.933594 C 101.222656 197.738281 98.855469 198.636719 96.488281 198.636719 " fill-opacity="1" fill-rule="nonzero"/><path fill="#1848a0" d="M 195.464844 192.230469 L 161.195312 157.957031 C 151.699219 148.453125 151.699219 133.054688 161.195312 123.554688 L 172.976562 111.773438 L 207.246094 146.046875 C 212 150.792969 214.375 157.019531 214.375 163.242188 C 214.375 169.472656 212 175.691406 207.246094 180.449219 L 195.464844 192.230469 " fill-opacity="1" fill-rule="nonzero"/><path fill="#ff6e29" d="M 237.484375 116.058594 L 271.886719 81.65625 C 281.390625 72.164062 281.390625 56.757812 271.886719 47.261719 C 262.386719 37.761719 246.988281 37.761719 237.484375 47.261719 L 168.6875 116.058594 C 159.195312 125.554688 159.195312 140.960938 168.6875 150.453125 L 237.484375 219.25 C 246.988281 228.753906 262.386719 228.753906 271.886719 219.25 C 281.390625 209.757812 281.390625 194.351562 271.886719 184.855469 L 237.484375 150.453125 C 227.992188 140.960938 227.992188 125.554688 237.484375 116.058594 " fill-opacity="1" fill-rule="nonzero"/><g clip-path="url(#4142562aab)"><path fill="#ff6e29" d="M 272.914062 126.71875 L 285.992188 113.644531 C 289.601562 110.03125 289.601562 104.175781 285.992188 100.566406 C 282.382812 96.957031 276.527344 96.957031 272.914062 100.566406 L 246.765625 126.71875 C 243.152344 130.328125 243.152344 136.183594 246.765625 139.796875 L 272.914062 165.945312 C 276.527344 169.558594 282.382812 169.558594 285.992188 165.945312 C 289.601562 162.335938 289.601562 156.480469 285.992188 152.871094 L 272.914062 139.796875 C 269.304688 136.183594 269.304688 130.328125 272.914062 126.71875 " fill-opacity="1" fill-rule="nonzero"/></g><g clip-path="url(#2eae8d839b)"><path fill="#d3d2d2" d="M 284.914062 166.875 C 285.289062 166.59375 285.652344 166.285156 285.992188 165.945312 C 287.796875 164.140625 288.695312 161.777344 288.695312 159.410156 C 288.695312 161.777344 287.796875 164.140625 285.992188 165.945312 C 285.652344 166.285156 285.289062 166.59375 284.914062 166.875 M 285.992188 100.566406 C 285.675781 100.25 285.335938 99.957031 284.984375 99.6875 C 285.335938 99.957031 285.675781 100.25 285.992188 100.566406 " fill-opacity="1" fill-rule="nonzero"/></g><g clip-path="url(#71edbdf02c)"><path fill="#e8713c" d="M 279.460938 168.652344 C 278.820312 168.652344 278.1875 168.585938 277.5625 168.449219 C 279.261719 168.097656 280.878906 167.261719 282.203125 165.945312 C 285.8125 162.335938 285.8125 156.480469 282.203125 152.871094 L 269.125 139.796875 C 265.515625 136.183594 265.515625 130.328125 269.125 126.71875 L 282.203125 113.644531 C 285.8125 110.03125 285.8125 104.175781 282.203125 100.566406 C 280.878906 99.242188 279.261719 98.414062 277.5625 98.054688 C 278.1875 97.925781 278.820312 97.863281 279.460938 97.863281 C 281.402344 97.863281 283.351562 98.472656 284.984375 99.6875 C 285.335938 99.957031 285.675781 100.25 285.992188 100.566406 C 287.796875 102.371094 288.695312 104.738281 288.695312 107.105469 C 288.695312 109.472656 287.796875 111.835938 285.992188 113.644531 L 272.914062 126.71875 C 271.109375 128.523438 270.203125 130.890625 270.203125 133.257812 C 270.203125 135.625 271.109375 137.988281 272.914062 139.796875 L 285.992188 152.871094 C 287.796875 154.675781 288.695312 157.042969 288.695312 159.410156 C 288.695312 161.777344 287.796875 164.140625 285.992188 165.945312 C 285.652344 166.285156 285.289062 166.59375 284.914062 166.875 C 283.292969 168.0625 281.375 168.652344 279.460938 168.652344 " fill-opacity="1" fill-rule="nonzero"/></g><g transform="matrix(1, 0, 0, 1, 46, 270)"><g clip-path="url(#e370d2f757)"><g fill="#1f40af" fill-opacity="1"><g transform="translate(0.631857, 57.811344)"><g><path d="M 17.453125 -10.609375 L 37.609375 -10.609375 L 37.609375 0 L 6.015625 0 L 6.015625 -52.640625 L 17.453125 -52.640625 Z M 17.453125 -10.609375 "/></g></g></g><g fill="#1f40af" fill-opacity="1"><g transform="translate(35.595562, 57.811344)"><g><path d="M 24.59375 1.125 C 20.382812 1.125 16.625 0.1875 13.3125 -1.6875 C 10 -3.570312 7.390625 -6.128906 5.484375 -9.359375 C 3.578125 -12.597656 2.625 -16.25 2.625 -20.3125 C 2.625 -24.414062 3.578125 -28.082031 5.484375 -31.3125 C 7.390625 -34.550781 10 -37.097656 13.3125 -38.953125 C 16.625 -40.804688 20.382812 -41.734375 24.59375 -41.734375 C 28.75 -41.734375 32.484375 -40.804688 35.796875 -38.953125 C 39.109375 -37.097656 41.710938 -34.550781 43.609375 -31.3125 C 45.515625 -28.082031 46.46875 -24.414062 46.46875 -20.3125 C 46.46875 -16.25 45.515625 -12.597656 43.609375 -9.359375 C 41.710938 -6.128906 39.109375 -3.570312 35.796875 -1.6875 C 32.484375 0.1875 28.75 1.125 24.59375 1.125 Z M 24.59375 -9.171875 C 27.75 -9.171875 30.328125 -10.195312 32.328125 -12.25 C 34.335938 -14.3125 35.34375 -17 35.34375 -20.3125 C 35.34375 -23.613281 34.335938 -26.289062 32.328125 -28.34375 C 30.328125 -30.40625 27.75 -31.4375 24.59375 -31.4375 C 21.382812 -31.4375 18.773438 -30.40625 16.765625 -28.34375 C 14.765625 -26.289062 13.765625 -23.613281 13.765625 -20.3125 C 13.765625 -17 14.765625 -14.3125 16.765625 -12.25 C 18.773438 -10.195312 21.382812 -9.171875 24.59375 -9.171875 Z M 24.59375 -9.171875 "/></g></g></g><g clip-path="url(#0fd8638f76)"><g fill="#1f40af" fill-opacity="1"><g transform="translate(80.409432, 57.811344)"><g><path d="M 38.046875 -40.609375 L 45.203125 -40.609375 L 45.203125 -4.734375 C 45.203125 -0.472656 44.359375 3.179688 42.671875 6.234375 C 40.992188 9.296875 38.597656 11.65625 35.484375 13.3125 C 32.378906 14.96875 28.695312 15.796875 24.4375 15.796875 C 18.925781 15.796875 14.328125 14.46875 10.640625 11.8125 C 6.953125 9.15625 4.660156 5.519531 3.765625 0.90625 L 14.671875 0.90625 C 15.265625 2.707031 16.5 4.070312 18.375 5 C 20.257812 5.925781 22.207031 6.390625 24.21875 6.390625 C 27.019531 6.390625 29.410156 5.550781 31.390625 3.875 C 33.378906 2.195312 34.375 -0.144531 34.375 -3.15625 L 34.375 -4.65625 C 32.769531 -3.507812 30.988281 -2.617188 29.03125 -1.984375 C 27.070312 -1.359375 24.988281 -1.046875 22.78125 -1.046875 C 19.019531 -1.046875 15.609375 -1.945312 12.546875 -3.75 C 9.492188 -5.5625 7.078125 -7.992188 5.296875 -11.046875 C 3.515625 -14.109375 2.625 -17.546875 2.625 -21.359375 C 2.625 -25.171875 3.515625 -28.617188 5.296875 -31.703125 C 7.078125 -34.785156 9.492188 -37.226562 12.546875 -39.03125 C 15.609375 -40.832031 19.019531 -41.734375 22.78125 -41.734375 C 25.4375 -41.734375 27.914062 -41.28125 30.21875 -40.375 C 32.53125 -39.476562 34.566406 -38.203125 36.328125 -36.546875 Z M 24.0625 -10.828125 C 27.070312 -10.828125 29.550781 -11.816406 31.5 -13.796875 C 33.457031 -15.773438 34.4375 -18.296875 34.4375 -21.359375 C 34.4375 -24.367188 33.472656 -26.863281 31.546875 -28.84375 C 29.617188 -30.820312 27.125 -31.8125 24.0625 -31.8125 C 21.101562 -31.8125 18.644531 -30.820312 16.6875 -28.84375 C 14.738281 -26.863281 13.765625 -24.367188 13.765625 -21.359375 C 13.765625 -18.296875 14.726562 -15.773438 16.65625 -13.796875 C 18.582031 -11.816406 21.050781 -10.828125 24.0625 -10.828125 Z M 24.0625 -10.828125 "/></g></g></g></g><g fill="#1f40af" fill-opacity="1"><g transform="translate(126.576759, 57.811344)"><g><path d="M 5.265625 -46.03125 L 5.265625 -56.25 L 16.25 -56.25 L 16.25 -46.03125 Z M 5.265625 0 L 5.265625 -40.609375 L 16.25 -40.609375 L 16.25 0 Z M 5.265625 0 "/></g></g></g><g fill="#1f40af" fill-opacity="1"><g transform="translate(143.795146, 57.811344)"><g><path d="M 19.703125 1.125 C 16.296875 1.125 13.3125 0.523438 10.75 -0.671875 C 8.195312 -1.878906 6.203125 -3.570312 4.765625 -5.75 C 3.335938 -7.9375 2.625 -10.484375 2.625 -13.390625 L 13.3125 -13.390625 C 13.363281 -11.578125 14.015625 -10.21875 15.265625 -9.3125 C 16.515625 -8.414062 18.117188 -7.96875 20.078125 -7.96875 C 21.628906 -7.96875 22.984375 -8.304688 24.140625 -8.984375 C 25.296875 -9.660156 25.875 -10.675781 25.875 -12.03125 C 25.875 -13.4375 25.109375 -14.425781 23.578125 -15 C 22.046875 -15.582031 20.203125 -16.046875 18.046875 -16.390625 C 16.441406 -16.640625 14.773438 -16.988281 13.046875 -17.4375 C 11.316406 -17.894531 9.722656 -18.550781 8.265625 -19.40625 C 6.816406 -20.257812 5.628906 -21.4375 4.703125 -22.9375 C 3.773438 -24.4375 3.3125 -26.390625 3.3125 -28.796875 C 3.3125 -31.359375 4 -33.613281 5.375 -35.5625 C 6.75 -37.519531 8.648438 -39.035156 11.078125 -40.109375 C 13.515625 -41.191406 16.390625 -41.734375 19.703125 -41.734375 C 22.960938 -41.734375 25.804688 -41.171875 28.234375 -40.046875 C 30.671875 -38.921875 32.566406 -37.34375 33.921875 -35.3125 C 35.273438 -33.28125 35.953125 -30.910156 35.953125 -28.203125 L 25.5 -28.203125 C 25.5 -29.804688 24.957031 -31.007812 23.875 -31.8125 C 22.800781 -32.613281 21.3125 -33.015625 19.40625 -33.015625 C 17.695312 -33.015625 16.363281 -32.648438 15.40625 -31.921875 C 14.457031 -31.191406 13.984375 -30.253906 13.984375 -29.109375 C 13.984375 -27.753906 14.734375 -26.820312 16.234375 -26.3125 C 17.742188 -25.8125 19.550781 -25.390625 21.65625 -25.046875 C 23.3125 -24.742188 25.015625 -24.378906 26.765625 -23.953125 C 28.523438 -23.523438 30.15625 -22.882812 31.65625 -22.03125 C 33.164062 -21.175781 34.382812 -20 35.3125 -18.5 C 36.238281 -17 36.703125 -15.019531 36.703125 -12.5625 C 36.703125 -9.800781 36 -7.390625 34.59375 -5.328125 C 33.1875 -3.273438 31.203125 -1.6875 28.640625 -0.5625 C 26.085938 0.5625 23.109375 1.125 19.703125 1.125 Z M 19.703125 1.125 "/></g></g></g><g fill="#1f40af" fill-opacity="1"><g transform="translate(178.984431, 57.811344)"><g><path d="M 25.125 -9.78125 L 30.078125 -9.78125 L 30.078125 0 L 22.328125 0 C 17.867188 0 14.347656 -1.289062 11.765625 -3.875 C 9.179688 -6.457031 7.890625 -10.003906 7.890625 -14.515625 L 7.890625 -31.8125 L 0.53125 -31.8125 L 0.53125 -34.140625 L 16.625 -51.21875 L 18.65625 -51.21875 L 18.65625 -40.609375 L 29.859375 -40.609375 L 29.859375 -31.8125 L 18.875 -31.8125 L 18.875 -15.9375 C 18.875 -13.988281 19.410156 -12.472656 20.484375 -11.390625 C 21.566406 -10.316406 23.113281 -9.78125 25.125 -9.78125 Z M 25.125 -9.78125 "/></g></g></g><g fill="#1f40af" fill-opacity="1"><g transform="translate(207.030468, 57.811344)"><g><path d="M 5.265625 -46.03125 L 5.265625 -56.25 L 16.25 -56.25 L 16.25 -46.03125 Z M 5.265625 0 L 5.265625 -40.609375 L 16.25 -40.609375 L 16.25 0 Z M 5.265625 0 "/></g></g></g><g fill="#1f40af" fill-opacity="1"><g transform="translate(224.248855, 57.811344)"><g><path d="M 38.8125 -40.609375 L 46.03125 -40.609375 L 46.03125 14.671875 L 35.046875 14.671875 L 35.046875 -2.1875 C 33.492188 -1.132812 31.765625 -0.304688 29.859375 0.296875 C 27.953125 0.898438 25.972656 1.203125 23.921875 1.203125 C 19.804688 1.203125 16.144531 0.273438 12.9375 -1.578125 C 9.726562 -3.429688 7.207031 -5.988281 5.375 -9.25 C 3.539062 -12.507812 2.625 -16.195312 2.625 -20.3125 C 2.625 -24.414062 3.539062 -28.082031 5.375 -31.3125 C 7.207031 -34.550781 9.726562 -37.097656 12.9375 -38.953125 C 16.144531 -40.804688 19.804688 -41.734375 23.921875 -41.734375 C 26.421875 -41.734375 28.773438 -41.304688 30.984375 -40.453125 C 33.191406 -39.609375 35.171875 -38.429688 36.921875 -36.921875 Z M 24.734375 -9.171875 C 26.890625 -9.171875 28.796875 -9.660156 30.453125 -10.640625 C 32.109375 -11.617188 33.425781 -12.945312 34.40625 -14.625 C 35.382812 -16.300781 35.875 -18.195312 35.875 -20.3125 C 35.875 -22.414062 35.382812 -24.304688 34.40625 -25.984375 C 33.425781 -27.660156 32.109375 -28.988281 30.453125 -29.96875 C 28.796875 -30.945312 26.890625 -31.4375 24.734375 -31.4375 C 22.628906 -31.4375 20.75 -30.945312 19.09375 -29.96875 C 17.445312 -28.988281 16.132812 -27.660156 15.15625 -25.984375 C 14.175781 -24.304688 13.6875 -22.414062 13.6875 -20.3125 C 13.6875 -18.195312 14.175781 -16.300781 15.15625 -14.625 C 16.132812 -12.945312 17.445312 -11.617188 19.09375 -10.640625 C 20.75 -9.660156 22.628906 -9.171875 24.734375 -9.171875 Z M 24.734375 -9.171875 "/></g></g></g><g fill="#373636" fill-opacity="1"><g transform="translate(271.249344, 57.811344)"><g/></g></g><g fill="#fa7315" fill-opacity="1"><g transform="translate(284.933892, 57.811344)"><g><path d="M 4.515625 0 L 4.515625 -11.734375 L 16.171875 -11.734375 L 16.171875 0 Z M 4.515625 0 "/></g></g></g></g></g></svg>